<svg id="visual" viewBox="0 0 960 540" width="960" height="540" xmlns="http://www.w3.org/2000/svg" xmlns:xlink="http://www.w3.org/1999/xlink" version="1.1"><path d="M0 433L22.8 437C45.7 441 91.3 449 137 443C182.7 437 228.3 417 274 401.2C319.7 385.3 365.3 373.7 411.2 381.8C457 390 503 418 548.8 426C594.7 434 640.3 422 686 420.5C731.7 419 777.3 428 823 435.2C868.7 442.3 914.3 447.7 937.2 450.3L960 453L960 541L937.2 541C914.3 541 868.7 541 823 541C777.3 541 731.7 541 686 541C640.3 541 594.7 541 548.8 541C503 541 457 541 411.2 541C365.3 541 319.7 541 274 541C228.3 541 182.7 541 137 541C91.3 541 45.7 541 22.8 541L0 541Z" fill="#fff2f5" stroke-linecap="round" stroke-linejoin="miter"></path></svg>