<svg id="visual" viewBox="0 0 960 540" width="960" height="540" xmlns="http://www.w3.org/2000/svg" xmlns:xlink="http://www.w3.org/1999/xlink" version="1.1"><path d="M0 105L22.8 101C45.7 97 91.3 89 137 95C182.7 101 228.3 121 274 136.8C319.7 152.7 365.3 164.3 411.2 156.2C457 148 503 120 548.8 112C594.7 104 640.3 116 686 117.5C731.7 119 777.3 110 823 102.8C868.7 95.7 914.3 90.3 937.2 87.7L960 85L960 0L937.2 0C914.3 0 868.7 0 823 0C777.3 0 731.7 0 686 0C640.3 0 594.7 0 548.8 0C503 0 457 0 411.2 0C365.3 0 319.7 0 274 0C228.3 0 182.7 0 137 0C91.3 0 45.7 0 22.8 0L0 0Z" fill="#fcf7f8" stroke-linecap="round" stroke-linejoin="miter"></path></svg>