<svg id="visual" viewBox="0 0 960 540" width="960" height="540" xmlns="http://www.w3.org/2000/svg" xmlns:xlink="http://www.w3.org/1999/xlink" version="1.1"><rect x="0" y="0" width="960" height="540" fill="#fff2f5"></rect><defs><linearGradient id="grad1_0" x1="43.8%" y1="0%" x2="100%" y2="100%"><stop offset="14.444444444444446%" stop-color="#ffbaca" stop-opacity="1"></stop><stop offset="85.55555555555554%" stop-color="#ffbaca" stop-opacity="1"></stop></linearGradient></defs><defs><linearGradient id="grad1_1" x1="43.8%" y1="0%" x2="100%" y2="100%"><stop offset="14.444444444444446%" stop-color="#ffbaca" stop-opacity="1"></stop><stop offset="85.55555555555554%" stop-color="#ffcdd9" stop-opacity="1"></stop></linearGradient></defs><defs><linearGradient id="grad1_2" x1="43.8%" y1="0%" x2="100%" y2="100%"><stop offset="14.444444444444446%" stop-color="#ffdfe7" stop-opacity="1"></stop><stop offset="85.55555555555554%" stop-color="#ffcdd9" stop-opacity="1"></stop></linearGradient></defs><defs><linearGradient id="grad1_3" x1="43.8%" y1="0%" x2="100%" y2="100%"><stop offset="14.444444444444446%" stop-color="#ffdfe7" stop-opacity="1"></stop><stop offset="85.55555555555554%" stop-color="#fff2f5" stop-opacity="1"></stop></linearGradient></defs><defs><linearGradient id="grad2_0" x1="0%" y1="0%" x2="56.3%" y2="100%"><stop offset="14.444444444444446%" stop-color="#ffbaca" stop-opacity="1"></stop><stop offset="85.55555555555554%" stop-color="#ffbaca" stop-opacity="1"></stop></linearGradient></defs><defs><linearGradient id="grad2_1" x1="0%" y1="0%" x2="56.3%" y2="100%"><stop offset="14.444444444444446%" stop-color="#ffcdd9" stop-opacity="1"></stop><stop offset="85.55555555555554%" stop-color="#ffbaca" stop-opacity="1"></stop></linearGradient></defs><defs><linearGradient id="grad2_2" x1="0%" y1="0%" x2="56.3%" y2="100%"><stop offset="14.444444444444446%" stop-color="#ffcdd9" stop-opacity="1"></stop><stop offset="85.55555555555554%" stop-color="#ffdfe7" stop-opacity="1"></stop></linearGradient></defs><defs><linearGradient id="grad2_3" x1="0%" y1="0%" x2="56.3%" y2="100%"><stop offset="14.444444444444446%" stop-color="#fff2f5" stop-opacity="1"></stop><stop offset="85.55555555555554%" stop-color="#ffdfe7" stop-opacity="1"></stop></linearGradient></defs><g transform="translate(960, 0)"><path d="M0 486C-84 472.4 -168 458.8 -242.5 420C-317 381.2 -381.9 317.2 -420.9 243C-459.9 168.8 -472.9 84.4 -486 0L0 0Z" fill="#ffe9ee"></path><path d="M0 364.5C-63 354.3 -126 344.1 -181.9 315C-237.7 285.9 -286.4 237.9 -315.7 182.3C-344.9 126.6 -354.7 63.3 -364.5 0L0 0Z" fill="#ffd6e0"></path><path d="M0 243C-42 236.2 -84 229.4 -121.2 210C-158.5 190.6 -190.9 158.6 -210.4 121.5C-229.9 84.4 -236.5 42.2 -243 0L0 0Z" fill="#ffc3d1"></path><path d="M0 121.5C-21 118.1 -42 114.7 -60.6 105C-79.2 95.3 -95.5 79.3 -105.2 60.8C-115 42.2 -118.2 21.1 -121.5 0L0 0Z" fill="#ffbaca"></path></g><g transform="translate(0, 540)"><path d="M0 -486C88.1 -475.1 176.2 -464.1 243 -420.9C309.8 -377.6 355.4 -302 392.3 -226.5C429.3 -151 457.6 -75.5 486 0L0 0Z" fill="#ffe9ee"></path><path d="M0 -364.5C66.1 -356.3 132.1 -348.1 182.2 -315.7C232.4 -283.2 266.5 -226.5 294.2 -169.9C321.9 -113.2 343.2 -56.6 364.5 0L0 0Z" fill="#ffd6e0"></path><path d="M0 -243C44 -237.5 88.1 -232.1 121.5 -210.4C154.9 -188.8 177.7 -151 196.2 -113.3C214.6 -75.5 228.8 -37.7 243 0L0 0Z" fill="#ffc3d1"></path><path d="M0 -121.5C22 -118.8 44 -116 60.7 -105.2C77.5 -94.4 88.8 -75.5 98.1 -56.6C107.3 -37.7 114.4 -18.9 121.5 0L0 0Z" fill="#ffbaca"></path></g></svg>