<svg id="visual" viewBox="0 0 960 540" width="960" height="540" xmlns="http://www.w3.org/2000/svg" xmlns:xlink="http://www.w3.org/1999/xlink" version="1.1"><rect x="0" y="0" width="960" height="540" fill="#fff2f5"></rect><defs><linearGradient id="grad1_0" x1="43.8%" y1="100%" x2="100%" y2="0%"><stop offset="14.444444444444446%" stop-color="#ffbaca" stop-opacity="1"></stop><stop offset="85.55555555555554%" stop-color="#ffbaca" stop-opacity="1"></stop></linearGradient></defs><defs><linearGradient id="grad1_1" x1="43.8%" y1="100%" x2="100%" y2="0%"><stop offset="14.444444444444446%" stop-color="#ffbaca" stop-opacity="1"></stop><stop offset="85.55555555555554%" stop-color="#ffcdd9" stop-opacity="1"></stop></linearGradient></defs><defs><linearGradient id="grad1_2" x1="43.8%" y1="100%" x2="100%" y2="0%"><stop offset="14.444444444444446%" stop-color="#ffdfe7" stop-opacity="1"></stop><stop offset="85.55555555555554%" stop-color="#ffcdd9" stop-opacity="1"></stop></linearGradient></defs><defs><linearGradient id="grad1_3" x1="43.8%" y1="100%" x2="100%" y2="0%"><stop offset="14.444444444444446%" stop-color="#ffdfe7" stop-opacity="1"></stop><stop offset="85.55555555555554%" stop-color="#fff2f5" stop-opacity="1"></stop></linearGradient></defs><defs><linearGradient id="grad2_0" x1="0%" y1="100%" x2="56.3%" y2="0%"><stop offset="14.444444444444446%" stop-color="#ffbaca" stop-opacity="1"></stop><stop offset="85.55555555555554%" stop-color="#ffbaca" stop-opacity="1"></stop></linearGradient></defs><defs><linearGradient id="grad2_1" x1="0%" y1="100%" x2="56.3%" y2="0%"><stop offset="14.444444444444446%" stop-color="#ffcdd9" stop-opacity="1"></stop><stop offset="85.55555555555554%" stop-color="#ffbaca" stop-opacity="1"></stop></linearGradient></defs><defs><linearGradient id="grad2_2" x1="0%" y1="100%" x2="56.3%" y2="0%"><stop offset="14.444444444444446%" stop-color="#ffcdd9" stop-opacity="1"></stop><stop offset="85.55555555555554%" stop-color="#ffdfe7" stop-opacity="1"></stop></linearGradient></defs><defs><linearGradient id="grad2_3" x1="0%" y1="100%" x2="56.3%" y2="0%"><stop offset="14.444444444444446%" stop-color="#fff2f5" stop-opacity="1"></stop><stop offset="85.55555555555554%" stop-color="#ffdfe7" stop-opacity="1"></stop></linearGradient></defs><g transform="translate(960, 540)"><path d="M-486 0C-472.4 -84 -458.8 -168 -420 -242.5C-381.2 -317 -317.2 -381.9 -243 -420.9C-168.8 -459.9 -84.4 -472.9 0 -486L0 0Z" fill="#ffe9ee"></path><path d="M-364.5 0C-354.3 -63 -344.1 -126 -315 -181.9C-285.9 -237.7 -237.9 -286.4 -182.3 -315.7C-126.6 -344.9 -63.3 -354.7 0 -364.5L0 0Z" fill="#ffd6e0"></path><path d="M-243 0C-236.2 -42 -229.4 -84 -210 -121.3C-190.6 -158.5 -158.6 -190.9 -121.5 -210.4C-84.4 -229.9 -42.2 -236.5 0 -243L0 0Z" fill="#ffc3d1"></path><path d="M-121.5 0C-118.1 -21 -114.7 -42 -105 -60.6C-95.3 -79.2 -79.3 -95.5 -60.8 -105.2C-42.2 -115 -21.1 -118.2 0 -121.5L0 0Z" fill="#ffbaca"></path></g><g transform="translate(0, 0)"><path d="M486 0C475.1 88.1 464.1 176.2 420.9 243C377.6 309.8 302 355.4 226.5 392.3C151 429.3 75.5 457.6 0 486L0 0Z" fill="#ffe9ee"></path><path d="M364.5 0C356.3 66.1 348.1 132.1 315.7 182.2C283.2 232.4 226.5 266.5 169.9 294.2C113.2 321.9 56.6 343.2 0 364.5L0 0Z" fill="#ffd6e0"></path><path d="M243 0C237.5 44 232.1 88.1 210.4 121.5C188.8 154.9 151 177.7 113.3 196.2C75.5 214.6 37.7 228.8 0 243L0 0Z" fill="#ffc3d1"></path><path d="M121.5 0C118.8 22 116 44 105.2 60.7C94.4 77.5 75.5 88.8 56.6 98.1C37.7 107.3 18.9 114.4 0 121.5L0 0Z" fill="#ffbaca"></path></g></svg>